<?xml version="1.0" ?><svg id="Layer_1" style="enable-background:new 0 0 512 512;" version="1.1" viewBox="0 0 512 512" xml:space="preserve" xmlns="http://www.w3.org/2000/svg" xmlns:xlink="http://www.w3.org/1999/xlink"><g><path d="M394.9,234.3c-18.5-26.2-43.5-46.4-72.8-58.7V76h20V10H169.8v65.9h20v99.6c-29.3,12.4-54.3,32.6-72.8,58.7   c-20.3,28.7-31,62.6-31,97.8c0.1,93.8,76.3,170,170,170s169.9-76.2,169.9-169.9C425.9,296.8,415.2,263,394.9,234.3z M189.8,55.9V30   h132.3v25.9H266v20h36.2v96.4h-92.3V55.9H189.8z M256,482c-82.7,0-149.9-67.2-149.9-149.9c0-25.3,6.5-49.6,18.1-71.1H246v-20H137.1   c16.4-21.4,38.5-38.5,64.6-48.7h108.6c26.1,10.1,48.2,27.2,64.6,48.7H266v20h121.8c11.6,21.5,18.1,45.8,18.1,71.1   C405.9,414.8,338.7,482,256,482z"/><rect height="20" width="20" x="226" y="55.9"/><rect height="20" width="20" x="196.7" y="295.6"/><rect height="20" width="78.5" x="236.7" y="295.6"/><rect height="20" width="20" x="295.3" y="355.4"/><rect height="20" width="78.5" x="196.7" y="355.4"/><rect height="20" width="20" x="196.7" y="415.3"/><rect height="20" width="78.5" x="236.7" y="415.3"/></g></svg>